<?xml version="1.0" encoding="UTF-8" standalone="no"?>
<!-- Created with Inkscape (http://www.inkscape.org/) -->

<svg
   xmlns:dc="http://purl.org/dc/elements/1.1/"
   xmlns:cc="http://creativecommons.org/ns#"
   xmlns:rdf="http://www.w3.org/1999/02/22-rdf-syntax-ns#"
   xmlns:svg="http://www.w3.org/2000/svg"
   xmlns="http://www.w3.org/2000/svg"
   xmlns:xlink="http://www.w3.org/1999/xlink"
   xmlns:sodipodi="http://sodipodi.sourceforge.net/DTD/sodipodi-0.dtd"
   xmlns:inkscape="http://www.inkscape.org/namespaces/inkscape"
   width="744.09448819"
   height="1052.3622047"
   id="svg18747"
   version="1.1"
   inkscape:version="0.48.2 r9819"
   sodipodi:docname="casa01e.svg">
  <defs
     id="defs18749">
    <pattern
       inkscape:collect="always"
       xlink:href="#Hatch"
       id="pattern20195" />
    <pattern
       inkscape:collect="always"
       xlink:href="#Hatch"
       id="pattern20192" />
    <pattern
       inkscape:collect="always"
       xlink:href="#Hatch"
       id="pattern20189" />
    <pattern
       inkscape:collect="always"
       xlink:href="#Hatch"
       id="pattern20186" />
    <symbol
       id="*Paper_Space0" />
    <symbol
       id="*Paper_Space" />
    <symbol
       id="*Model_Space" />
    <pattern
       id="Hatch"
       x="0"
       y="0"
       patternUnits="userSpaceOnUse"
       width="8"
       height="8">
      <path
         id="path18784"
         d="M8 4 l-4,4"
         stroke-width="0.25"
         stroke="#000000"
         linecap="square" />
      <path
         id="path18786"
         d="M6 2 l-4,4"
         stroke-width="0.25"
         stroke="#000000"
         linecap="square" />
      <path
         id="path18788"
         d="M4 0 l-4,4"
         stroke-width="0.25"
         stroke="#000000"
         linecap="square" />
    </pattern>
    <marker
       orient="auto"
       id="DistanceX"
       style="overflow:visible"
       refX="0.0"
       refY="0.0">
      <path
         id="path18781"
         d="M 3,-3 L -3,3 M 0,-5 L  0,5"
         style="stroke:#000000; stroke-width:0.5" />
    </marker>
  </defs>
  <sodipodi:namedview
     id="base"
     pagecolor="#ffffff"
     bordercolor="#666666"
     borderopacity="1.0"
     inkscape:pageopacity="0.0"
     inkscape:pageshadow="2"
     inkscape:zoom="0.59675272"
     inkscape:cx="372.04724"
     inkscape:cy="526.18109"
     inkscape:document-units="px"
     inkscape:current-layer="g18904"
     showgrid="false"
     inkscape:snap-grids="false"
     inkscape:window-width="1168"
     inkscape:window-height="816"
     inkscape:window-x="607"
     inkscape:window-y="387"
     inkscape:window-maximized="0" />
  <metadata
     id="metadata18752">
    <rdf:RDF>
      <cc:Work
         rdf:about="">
        <dc:format>image/svg+xml</dc:format>
        <dc:type
           rdf:resource="http://purl.org/dc/dcmitype/StillImage" />
        <dc:title></dc:title>
      </cc:Work>
    </rdf:RDF>
  </metadata>
  <g
     inkscape:label="Layer 1"
     inkscape:groupmode="layer"
     id="layer1">
    <g
       id="g18904"
       transform="translate(-20.427325,-402.36065)">
      <g
         id="g18793"
         inkscape:label="0" />
      <g
         id="paredes"
         inkscape:label="#g21331"
         style="stroke-width:2;stroke-miterlimit:4;stroke-dasharray:none">
        <path
           id="path18797"
           d="m 537.24834,750.97317 -65.0013,0 0,-88.63814 65.0013,0 0,88.63814 z"
           style="fill:none;stroke:#000000;stroke-width:2;stroke-miterlimit:4;stroke-dasharray:none"
           inkscape:connector-curvature="0" />
        <path
           id="path18799"
           d="m 546.11215,750.97317 0,-88.63814 103.41116,0 56.13748,0 0,88.63814 -56.13748,0 -103.41116,0 z"
           style="fill:none;stroke:#000000;stroke-width:2;stroke-miterlimit:4;stroke-dasharray:none"
           inkscape:connector-curvature="0" />
        <path
           id="path18801"
           d="m 404.29114,895.74878 -82.72893,0 0,8.86382 82.72893,0 0,-8.86382 z"
           style="fill:none;stroke:#000000;stroke-width:2;stroke-miterlimit:4;stroke-dasharray:none"
           inkscape:connector-curvature="0" />
        <path
           id="path18803"
           d="m 224.06027,541.19625 -138.866412,0 0,-85.68353 35.455252,0 0,-8.86381 -44.319066,0 0,183.18547 147.730226,0 0,165.45785 8.86381,0 0,-165.45785 230.45915,0 0,265.9144 -5.90921,0 0,8.86382 5.90921,0 0,118.1842 97.50194,0 0,-8.8638 -88.63813,0 0,-118.18422 0,-135.9118 177.27627,0 0,165.45785 8.86381,0 0,-165.45785 56.13749,0 0,-106.36576 -56.13749,0 0,-59.09209 -8.86381,0 0,59.09209 -177.27627,0 0,-197.9585 177.27627,0 0,50.22828 8.86381,0 0,-59.09209 -434.32685,0 0,8.86381 0,85.68353 z"
           style="fill:none;stroke:#000000;stroke-width:2;stroke-miterlimit:4;stroke-dasharray:none"
           inkscape:connector-curvature="0" />
        <path
           id="path18805"
           d="m 232.92408,455.51272 230.45915,0 0,165.45785 -230.45915,0 0,-165.45785 z"
           style="fill:none;stroke:#000000;stroke-width:2;stroke-miterlimit:4;stroke-dasharray:none"
           inkscape:connector-curvature="0" />
        <path
           id="path18807"
           d="m 224.06027,620.97057 -138.866412,0 0,-70.91051 138.866412,0 0,70.91051 z"
           style="fill:none;stroke:#000000;stroke-width:2;stroke-miterlimit:4;stroke-dasharray:none"
           inkscape:connector-curvature="0" />
      </g>
      <path
         inkscape:connector-curvature="0"
         style="fill:none;stroke:#000000"
         d="m 224.06027,795.29223 0,109.32037 97.50194,0"
         id="path18811" />
      <path
         inkscape:connector-curvature="0"
         style="fill:none;stroke:#000000"
         d="m 321.56221,895.74878 -88.63813,0 0,-100.45655"
         id="path18813" />
      <path
         inkscape:connector-curvature="0"
         style="fill:none;stroke:#000000"
         d="m 321.56221,898.70339 -91.59273,0 0,-103.41116"
         id="path18815" />
      <path
         inkscape:connector-curvature="0"
         style="fill:none;stroke:#000000"
         d="m 227.01487,795.29223 0,106.36576 94.54734,0"
         id="path18817" />
      <path
         inkscape:connector-curvature="0"
         style="fill:none;stroke:#000000"
         d="m 46.784,417.10286 0,635.23994 641.14917,0 0,-262.95978 56.13748,0 0,-165.45785 -56.13748,0 0,-206.82231 -641.14917,0 z"
         id="coberta"
         inkscape:label="#path18821" />
      <g
         id="janela_alta"
         inkscape:label="#g21339">
        <path
           id="path18825"
           d="m 85.193858,477.96771 -8.863814,0"
           style="fill:none;stroke:#000000"
           inkscape:connector-curvature="0" />
        <path
           id="path18827"
           d="m 85.193858,519.33218 -8.863814,0"
           style="fill:none;stroke:#000000"
           inkscape:connector-curvature="0" />
        <path
           id="path18829"
           d="m 82.239253,477.96771 0,41.36447"
           style="fill:none;stroke:#000000"
           inkscape:connector-curvature="0" />
        <path
           id="path18831"
           d="m 79.284649,477.96771 0,41.36447"
           style="fill:none;stroke:#000000"
           inkscape:connector-curvature="0" />
        <path
           id="path18833"
           d="m 85.193858,565.42401 -8.863814,0"
           style="fill:none;stroke:#000000"
           inkscape:connector-curvature="0" />
        <path
           id="path18835"
           d="m 85.193858,606.78847 -8.863814,0"
           style="fill:none;stroke:#000000"
           inkscape:connector-curvature="0" />
        <path
           id="path18837"
           d="m 82.239253,565.42401 0,41.36446"
           style="fill:none;stroke:#000000"
           inkscape:connector-curvature="0" />
        <path
           id="path18839"
           d="m 79.284649,565.42401 0,41.36446"
           style="fill:none;stroke:#000000"
           inkscape:connector-curvature="0" />
      </g>
      <path
         inkscape:connector-curvature="0"
         style="fill:none;stroke:#000000"
         d="m 303.83459,446.64891 0,8.86381"
         id="path18841" />
      <path
         inkscape:connector-curvature="0"
         style="fill:none;stroke:#000000"
         d="m 392.47272,446.64891 0,8.86381"
         id="path18843" />
      <path
         inkscape:connector-curvature="0"
         style="fill:none;stroke:#000000"
         d="m 303.83459,449.60351 88.63813,0"
         id="path18845" />
      <path
         inkscape:connector-curvature="0"
         style="fill:none;stroke:#000000"
         d="m 303.83459,452.55812 88.63813,0"
         id="path18847" />
      <path
         inkscape:connector-curvature="0"
         style="fill:none;stroke:#000000"
         d="m 705.66079,683.01726 8.86382,0"
         id="path18849" />
      <path
         inkscape:connector-curvature="0"
         style="fill:none;stroke:#000000"
         d="m 705.66079,730.29093 8.86382,0"
         id="path18851" />
      <path
         inkscape:connector-curvature="0"
         style="fill:none;stroke:#000000"
         d="m 711.57,683.01726 0,47.27367"
         id="path18853" />
      <path
         inkscape:connector-curvature="0"
         style="fill:none;stroke:#000000"
         d="m 708.6154,683.01726 0,47.27367"
         id="path18855" />
      <path
         inkscape:connector-curvature="0"
         style="fill:none;stroke:#000000"
         d="m 658.38712,505.741 0,88.63813"
         id="path18859" />
      <path
         inkscape:connector-curvature="0"
         style="fill:none;stroke:#000000"
         d="m 649.52331,594.37913 0,-88.63813"
         id="path18861" />
      <path
         inkscape:connector-curvature="0"
         style="fill:none;stroke:#000000"
         d="m 655.43252,505.741 0,88.63813"
         id="path18863" />
      <path
         inkscape:connector-curvature="0"
         style="fill:none;stroke:#000000"
         d="m 652.47791,505.741 0,88.63813"
         id="path18865" />
      <path
         inkscape:connector-curvature="0"
         style="fill:none;stroke:#000000"
         d="m 560.88517,1013.933 88.63814,0 0,-88.63817"
         id="path18867" />
      <path
         inkscape:connector-curvature="0"
         style="fill:none;stroke:#000000"
         d="m 560.88517,1022.7968 97.50195,0 0,-97.50197"
         id="path18869" />
      <path
         inkscape:connector-curvature="0"
         style="fill:none;stroke:#000000"
         d="m 560.88517,1016.8876 91.59274,0 0,-91.59277"
         id="path18871" />
      <path
         inkscape:connector-curvature="0"
         style="fill:none;stroke:#000000"
         d="m 560.88517,1019.8422 94.54735,0 0,-94.54737"
         id="path18873" />
      <path
         inkscape:connector-curvature="0"
         style="fill:none;stroke:#000000"
         d="m 457.47402,895.74878 0,-53.18288 -2.95461,0 0,53.18288 2.95461,0 0,0 z"
         id="path18877" />
      <path
         inkscape:connector-curvature="0"
         style="fill:none;stroke:#000000"
         d="m 454.51941,842.5659 a 57.271048,57.271048 0 0 0 -50.22827,53.18288"
         id="path18879" />
      <path
         inkscape:connector-curvature="0"
         style="fill:url(#pattern20195);fill-opacity:1;stroke:#000000"
         d="m 76.330044,629.83438 0,392.96242"
         id="path18883" />
      <path
         inkscape:connector-curvature="0"
         style="fill:url(#pattern20192);fill-opacity:1;stroke:#000000"
         d="m 76.330044,1022.7968 387.053186,0"
         id="path18885" />
      <path
         inkscape:connector-curvature="0"
         style="fill:url(#pattern20189);fill-opacity:1;stroke:#000000"
         d="m 404.29114,904.6126 53.18288,0"
         id="path18887" />
      <path
         inkscape:connector-curvature="0"
         style="fill:url(#pattern20186);fill-opacity:1;stroke:none"
         d="m 463.38323,904.6126 -5.90921,0 -53.18288,0 -82.72893,0 -97.50194,0 0,-109.32037 0,-165.45785 -147.730226,0 0,392.96242 387.053186,0 z"
         id="path18889" />
      <rect
         style="fill:#d40000;fill-opacity:1;stroke:none"
         id="janelaAltaHit"
         width="131.5266"
         height="34.955265"
         x="98.748428"
         y="1075.9711"
         inkscape:label="#rect21349" />
      <text
         xml:space="preserve"
         style="font-size:40px;font-style:normal;font-weight:normal;line-height:125%;letter-spacing:0px;word-spacing:0px;fill:#000000;fill-opacity:1;stroke:none;font-family:Sans"
         x="95.516953"
         y="700.45764"
         id="text21351"
         sodipodi:linespacing="125%"
         transform="translate(20.427325,402.36065)"><tspan
           sodipodi:role="line"
           id="tspan21353"
           x="95.516953"
           y="700.45764">Teste</tspan></text>
    </g>
  </g>
</svg>
