<?xml version="1.0" encoding="UTF-8" standalone="no"?>
<!-- Created with Inkscape (http://www.inkscape.org/) -->

<svg
   xmlns:dc="http://purl.org/dc/elements/1.1/"
   xmlns:cc="http://creativecommons.org/ns#"
   xmlns:rdf="http://www.w3.org/1999/02/22-rdf-syntax-ns#"
   xmlns:svg="http://www.w3.org/2000/svg"
   xmlns="http://www.w3.org/2000/svg"
   version="1.1"
   width="744.09448"
   height="1052.3622"
   id="svg18003">
  <defs
     id="defs18005">
    <symbol
       id="*Paper_Space0" />
    <symbol
       id="*Paper_Space" />
    <symbol
       id="*Model_Space" />
    <pattern
       height="8"
       width="8"
       patternUnits="userSpaceOnUse"
       y="0"
       x="0"
       id="Hatch">
      <path
         linecap="square"
         stroke="#000000"
         stroke-width="0.25"
         d="M8 4 l-4,4"
         id="path18110" />
      <path
         linecap="square"
         stroke="#000000"
         stroke-width="0.25"
         d="M6 2 l-4,4"
         id="path18112" />
      <path
         linecap="square"
         stroke="#000000"
         stroke-width="0.25"
         d="M4 0 l-4,4"
         id="path18114" />
    </pattern>
    <marker
       refX="0"
       refY="0"
       orient="auto"
       id="DistanceX"
       style="overflow:visible">
      <path
         d="M 3,-3 -3,3 M 0,-5 0,5"
         id="path18107"
         style="stroke:#000000;stroke-width:0.5" />
    </marker>
  </defs>
  <metadata
     id="metadata18008">
    <rdf:RDF>
      <cc:Work
         rdf:about="">
        <dc:format>image/svg+xml</dc:format>
        <dc:type
           rdf:resource="http://purl.org/dc/dcmitype/StillImage" />
        <dc:title></dc:title>
      </cc:Work>
    </rdf:RDF>
  </metadata>
  <g
     id="layer1">
    <g
       transform="translate(-3.7890624e-6,-187.23976)"
       id="g18150">
      <g
         id="g18119" />
      <path
         d="m 293.22368,894.71507 151.34125,0 0,126.11773 208.09422,0 0,-280.61193 59.90591,0 0,-113.50594 -59.90591,0 0,-220.70599 -463.48259,0 0,9.45883 454.02376,0 0,220.70599 59.90591,0 0,94.58828 -59.90591,0 0,280.61186 -189.17656,0 0,-126.11766 -160.80008,0 0,9.45883 z"
         id="path18123"
         style="fill:none;stroke:#000000;stroke-width:2;stroke-miterlimit:4;stroke-dasharray:none" />
      <path
         d="m 198.63539,778.05619 0,-186.02363 -157.647134,0 0,-176.56479 37.835313,0 0,-9.45883 -47.294142,0 0,195.48245 157.647133,0 0,176.5648 9.45883,0 z"
         id="path18125"
         style="fill:none;stroke:#000000;stroke-width:2;stroke-miterlimit:4;stroke-dasharray:none" />
      <g
         id="g18127"
         style="stroke-width:1;stroke-miterlimit:4;stroke-dasharray:none">
        <path
           d="m 189.17656,778.05619 0,116.65888 104.04712,0"
           id="path18129"
           style="fill:none;stroke:#000000;stroke-width:1;stroke-miterlimit:4;stroke-dasharray:none" />
        <path
           d="m 293.22368,885.25624 -94.58829,0 0,-107.20005"
           id="path18131"
           style="fill:none;stroke:#000000;stroke-width:1;stroke-miterlimit:4;stroke-dasharray:none" />
      </g>
      <path
         d="m 0,374.47951 0,677.88269 684.18858,0 0,-280.6119 59.90591,0 0,-176.56479 -59.90591,0 0,-220.706 -684.18858,0 z"
         id="path18135"
         style="fill:none;stroke:#000000;stroke-width:1;stroke-miterlimit:4;stroke-dasharray:12, 12;stroke-dashoffset:0" />
    </g>
  </g>
</svg>
