<?xml version="1.0" encoding="UTF-8" standalone="no"?>
<svg
   xmlns:dc="http://purl.org/dc/elements/1.1/"
   xmlns:cc="http://creativecommons.org/ns#"
   xmlns:rdf="http://www.w3.org/1999/02/22-rdf-syntax-ns#"
   xmlns:svg="http://www.w3.org/2000/svg"
   xmlns="http://www.w3.org/2000/svg"
   xmlns:xlink="http://www.w3.org/1999/xlink"
   xmlns:sodipodi="http://sodipodi.sourceforge.net/DTD/sodipodi-0.dtd"
   xmlns:inkscape="http://www.inkscape.org/namespaces/inkscape"
   width="744.094488189"
   height="1052.36220472"
   id="svg16976"
   version="1.1"
   inkscape:version="0.48.2 r9819"
   sodipodi:docname="fachada_posterior.svg">
  <metadata
     id="metadata17186">
    <rdf:RDF>
      <cc:Work
         rdf:about="">
        <dc:format>image/svg+xml</dc:format>
        <dc:type
           rdf:resource="http://purl.org/dc/dcmitype/StillImage" />
        <dc:title></dc:title>
      </cc:Work>
    </rdf:RDF>
  </metadata>
  <sodipodi:namedview
     pagecolor="#ffffff"
     bordercolor="#666666"
     borderopacity="1"
     objecttolerance="10"
     gridtolerance="10"
     guidetolerance="10"
     inkscape:pageopacity="0"
     inkscape:pageshadow="2"
     inkscape:window-width="1589"
     inkscape:window-height="1082"
     id="namedview17184"
     showgrid="false"
     inkscape:zoom="1.7940591"
     inkscape:cx="415.14161"
     inkscape:cy="903.86403"
     inkscape:window-x="217"
     inkscape:window-y="214"
     inkscape:window-maximized="0"
     inkscape:current-layer="g17088" />
  <desc
     id="desc16978">/Users/andreibosco/Documents/git/ufcv-maphighlight/template/svg/fachada_posterior.dxf - scale = 0.015161</desc>
  <defs
     id="defs16980">
    <marker
       refY="0.0"
       refX="0.0"
       style="overflow:visible"
       id="DistanceX"
       orient="auto">
      <path
         style="stroke:#000000; stroke-width:0.5"
         d="M 3,-3 L -3,3 M 0,-5 L  0,5"
         id="path16983" />
    </marker>
    <pattern
       height="8"
       width="8"
       patternUnits="userSpaceOnUse"
       y="0"
       x="0"
       id="Hatch">
      <path
         linecap="square"
         stroke="#000000"
         stroke-width="0.25"
         d="M8 4 l-4,4"
         id="path16986" />
      <path
         linecap="square"
         stroke="#000000"
         stroke-width="0.25"
         d="M6 2 l-4,4"
         id="path16988" />
      <path
         linecap="square"
         stroke="#000000"
         stroke-width="0.25"
         d="M4 0 l-4,4"
         id="path16990" />
    </pattern>
    <symbol
       id="*Model_Space" />
    <symbol
       id="*Paper_Space" />
    <symbol
       id="*Paper_Space0" />
    <symbol
       id="*U1">
      <path
         style="stroke:#000000;fill:none"
         d="M -19.290381,1052.895369 18.313324,1052.895369"
         id="path16996" />
    </symbol>
    <symbol
       id="*U2">
      <use
         y="0.000000"
         x="0.000000"
         xlink:href="#%2AU1"
         id="use16999" />
      <use
         y="-2.685979"
         x="0.000000"
         xlink:href="#%2AU1"
         id="use17001" />
      <use
         y="-5.371958"
         x="0.000000"
         xlink:href="#%2AU1"
         id="use17003" />
      <use
         y="-8.057937"
         x="0.000000"
         xlink:href="#%2AU1"
         id="use17005" />
      <use
         y="-10.743915"
         x="0.000000"
         xlink:href="#%2AU1"
         id="use17007" />
    </symbol>
    <symbol
       id="_Origin">
      <path
         style="stroke:#000000;fill:none;stroke-linecap: round"
         d="M -0.461669,1052.895369 A 0.026860,0.026860 -0.000000 1 0 -0.515388,1052.895369 0.026860,0.026860 -0.000000 1 0 -0.461669,1052.895369 z"
         id="path17010" />
      <path
         style="stroke:#000000;fill:none;stroke-linecap: round"
         d="M -0.488529,1052.895369 -0.542248,1052.895369"
         id="path17012" />
    </symbol>
  </defs>
  <g
     inkscape:label="portas"
     inkscape:groupmode="layer"
     id="g17018">
    <path
       style="fill:none;stroke:#000000"
       d="m 577.54107,252.6884 0,-128.92697 -42.97566,0 0,128.92697"
       id="path17020"
       inkscape:connector-curvature="0" />
    <path
       style="fill:none;stroke:#000000"
       d="m 574.85509,252.6884 0,-126.24099 -37.6037,0 0,126.24099"
       id="path17022"
       inkscape:connector-curvature="0" />
    <path
       style="fill:none;stroke:#000000"
       d="m 537.25139,139.87731 37.6037,56.40555"
       id="path17024"
       inkscape:connector-curvature="0" />
    <path
       style="fill:none;stroke:#000000"
       d="m 574.85509,196.28286 -37.6037,56.40554"
       id="path17026"
       inkscape:connector-curvature="0" />
    <path
       style="fill:none;stroke:#000000"
       d="m 574.85509,139.87731 -37.6037,0"
       id="path17028"
       inkscape:connector-curvature="0" />
    <path
       style="fill:none;stroke:#000000"
       d="m 574.85509,137.19133 -37.6037,0"
       id="path17030"
       inkscape:connector-curvature="0" />
    <path
       style="fill:none;stroke:#000000"
       d="m 574.85509,134.50535 -37.6037,0"
       id="path17032"
       inkscape:connector-curvature="0" />
    <path
       style="fill:none;stroke:#000000"
       d="m 574.85509,131.81937 -37.6037,0"
       id="path17034"
       inkscape:connector-curvature="0" />
    <path
       style="fill:none;stroke:#000000"
       d="m 574.85509,129.13339 -37.6037,0"
       id="path17036"
       inkscape:connector-curvature="0" />
  </g>
  <g
     inkscape:label="paredes"
     inkscape:groupmode="layer"
     id="g17038">
    <path
       style="fill:none;stroke:#000000;stroke-width:2;stroke-miterlimit:4;stroke-dasharray:none"
       d="m 134.35456,73.77347 0,188.58443"
       id="path17040"
       inkscape:connector-curvature="0" />
    <path
       style="fill:none;stroke:#000000;stroke-width:1.10000002"
       d="m 663.4924,262.3579 0,-194.62575"
       id="path17042"
       inkscape:connector-curvature="0" />
    <path
       style="fill:none;stroke:#000000;stroke-width:2;stroke-miterlimit:4;stroke-dasharray:none"
       d="m 623.20271,252.6884 0,-191.927"
       id="path17044"
       inkscape:connector-curvature="0" />
    <path
       style="fill:none;stroke:#000000;stroke-width:2;stroke-miterlimit:4;stroke-dasharray:none"
       d="m 529.19345,252.6884 0,-208.1921"
       id="path17046"
       inkscape:connector-curvature="0" />
    <path
       style="fill:none;stroke:#000000;stroke-width:2;stroke-miterlimit:4;stroke-dasharray:none"
       d="m 529.19345,252.6884 94.00926,0"
       id="path17048"
       inkscape:connector-curvature="0" />
  </g>
  <g
     inkscape:label="janelas"
     inkscape:groupmode="layer"
     id="g17050">
    <path
       style="fill:none;stroke:#000000"
       d="m 453.98605,130.74498 0,21.48783 -34.91773,0"
       id="path17052"
       inkscape:connector-curvature="0" />
    <path
       style="fill:none;stroke:#000000"
       d="m 419.06832,130.74498 34.91773,0"
       id="path17054"
       inkscape:connector-curvature="0" />
    <path
       style="fill:none;stroke:#000000"
       d="m 416.38234,128.059 40.28969,0"
       id="path17056"
       inkscape:connector-curvature="0" />
    <path
       style="fill:none;stroke:#000000"
       d="m 416.38234,154.91879 0,-26.85979"
       id="path17058"
       inkscape:connector-curvature="0" />
    <path
       style="fill:none;stroke:#000000"
       d="m 419.06832,152.23281 0,-21.48783"
       id="path17060"
       inkscape:connector-curvature="0" />
    <path
       style="fill:none;stroke:#000000"
       d="m 419.06832,130.74498 17.45886,21.48783"
       id="path17062"
       inkscape:connector-curvature="0" />
    <path
       style="fill:none;stroke:#000000"
       d="m 436.52718,152.23281 17.45887,-21.48783"
       id="path17064"
       inkscape:connector-curvature="0" />
    <path
       style="fill:none;stroke:#000000"
       d="m 456.67203,128.059 0,26.85979 -40.28969,0"
       id="path17066"
       inkscape:connector-curvature="0" />
    <path
       style="fill:none;stroke:#000000"
       d="m 416.38234,128.059 0,26.85979 -40.28968,0"
       id="path17068"
       inkscape:connector-curvature="0" />
    <path
       style="fill:none;stroke:#000000"
       d="m 413.69636,130.74498 0,21.48783 -34.91772,0"
       id="path17070"
       inkscape:connector-curvature="0" />
    <path
       style="fill:none;stroke:#000000"
       d="m 378.77864,130.74498 34.91772,0"
       id="path17072"
       inkscape:connector-curvature="0" />
    <path
       style="fill:none;stroke:#000000"
       d="m 376.09266,128.059 40.28968,0"
       id="path17074"
       inkscape:connector-curvature="0" />
    <path
       style="fill:none;stroke:#000000"
       d="m 376.09266,154.91879 0,-26.85979"
       id="path17076"
       inkscape:connector-curvature="0" />
    <path
       style="fill:none;stroke:#000000"
       d="m 378.77864,152.23281 0,-21.48783"
       id="path17078"
       inkscape:connector-curvature="0" />
    <path
       style="fill:none;stroke:#000000"
       d="m 378.77864,130.74498 17.45886,21.48783"
       id="path17080"
       inkscape:connector-curvature="0" />
    <path
       style="fill:none;stroke:#000000"
       d="m 396.2375,152.23281 17.45886,-21.48783"
       id="path17082"
       inkscape:connector-curvature="0" />
  </g>
  <g
     inkscape:label="piso"
     inkscape:groupmode="layer"
     id="g17084">
    <path
       style="fill:none;stroke:#000000;stroke-width:4;stroke-miterlimit:4;stroke-dasharray:none"
       d="m 0.055617,262.3579 744.016143,0"
       id="path17086"
       inkscape:connector-curvature="0" />
  </g>
  <g
     inkscape:label="coberta"
     inkscape:groupmode="layer"
     id="g17088">
    <path
       style="fill:none;stroke:#000000;stroke-width:2;stroke-miterlimit:4;stroke-dasharray:none"
       d="m 690.8101,62.50928 -274.42776,-47.44046 0,2.68598 273.96985,47.40113 0.45791,-2.64665 0,0 z"
       id="path17090"
       inkscape:connector-curvature="0" />
    <path
       style="fill:none;stroke:#000000"
       d="m 690.79914,62.57264 0.73266,-4.23466 -20.27036,-1.39164 -0.36633,2.11733"
       id="path17092"
       inkscape:connector-curvature="0" />
    <path
       style="fill:none;stroke:#000000"
       d="m 670.89511,59.06367 0.73267,-4.23466 -21.5396,-1.54598 -0.36633,2.11733"
       id="path17094"
       inkscape:connector-curvature="0" />
    <path
       style="fill:none;stroke:#000000"
       d="m 649.72185,55.40036 0.73266,-4.23466 -21.53959,-1.54598 -0.36633,2.11733"
       id="path17096"
       inkscape:connector-curvature="0" />
    <path
       style="fill:none;stroke:#000000"
       d="m 628.54859,51.73705 0.73266,-4.23466 -21.53959,-1.54598 -0.36633,2.11733"
       id="path17098"
       inkscape:connector-curvature="0" />
    <path
       style="fill:none;stroke:#000000"
       d="m 607.37533,48.07374 0.73266,-4.23466 -21.5396,-1.54598 -0.36633,2.11733"
       id="path17100"
       inkscape:connector-curvature="0" />
    <path
       style="fill:none;stroke:#000000"
       d="m 586.20206,44.41043 0.73267,-4.23466 -21.5396,-1.54598 -0.36633,2.11732"
       id="path17102"
       inkscape:connector-curvature="0" />
    <path
       style="fill:none;stroke:#000000"
       d="m 565.0288,40.74711 0.73266,-4.23465 -21.53959,-1.54598 -0.36633,2.11732"
       id="path17104"
       inkscape:connector-curvature="0" />
    <path
       style="fill:none;stroke:#000000"
       d="m 543.85554,37.0838 0.73266,-4.23465 -21.53959,-1.54598 -0.36633,2.11732"
       id="path17106"
       inkscape:connector-curvature="0" />
    <path
       style="fill:none;stroke:#000000"
       d="m 522.68228,33.42049 0.73266,-4.23465 -21.53959,-1.54598 -0.36634,2.11732"
       id="path17108"
       inkscape:connector-curvature="0" />
    <path
       style="fill:none;stroke:#000000"
       d="m 501.50901,29.75718 0.73267,-4.23465 -21.5396,-1.54598 -0.36633,2.11732"
       id="path17110"
       inkscape:connector-curvature="0" />
    <path
       style="fill:none;stroke:#000000"
       d="m 480.33575,26.09387 0.73267,-4.23465 -21.5396,-1.54598 -0.36633,2.11732"
       id="path17112"
       inkscape:connector-curvature="0" />
    <path
       style="fill:none;stroke:#000000"
       d="m 459.16249,22.43056 0.73266,-4.23465 -21.53959,-1.54598 -0.36633,2.11732"
       id="path17114"
       inkscape:connector-curvature="0" />
    <path
       style="fill:none;stroke:#000000"
       d="m 437.98923,18.76725 0.73266,-4.23465 -21.53959,-1.54598 -0.36633,2.11732"
       id="path17116"
       inkscape:connector-curvature="0" />
    <path
       style="fill:none;stroke:#000000"
       d="m 56.00326,77.38022 -0.732662,-4.23465 21.539593,-1.54599 0.366331,2.11733"
       id="path17118"
       inkscape:connector-curvature="0" />
    <path
       style="fill:none;stroke:#000000"
       d="M 77.176522,73.71691 76.44386,69.48226 97.983453,67.93627 98.349784,70.0536"
       id="path17120"
       inkscape:connector-curvature="0" />
    <path
       style="fill:none;stroke:#000000"
       d="m 98.349784,70.0536 -0.732662,-4.23465 21.539598,-1.54599 0.36633,2.11733"
       id="path17122"
       inkscape:connector-curvature="0" />
    <path
       style="fill:none;stroke:#000000"
       d="m 119.52305,66.39029 -0.73266,-4.23466 21.53959,-1.54598 0.36633,2.11733"
       id="path17124"
       inkscape:connector-curvature="0" />
    <path
       style="fill:none;stroke:#000000"
       d="m 140.69631,62.72698 -0.73266,-4.23465 21.53959,-1.54599 0.36633,2.11733"
       id="path17126"
       inkscape:connector-curvature="0" />
    <path
       style="fill:none;stroke:#000000"
       d="m 161.86957,59.06367 -0.73266,-4.23466 21.53959,-1.54598 0.36633,2.11733"
       id="path17128"
       inkscape:connector-curvature="0" />
    <path
       style="fill:none;stroke:#000000"
       d="m 183.04283,55.40036 -0.73266,-4.23466 21.53959,-1.54598 0.36634,2.11733"
       id="path17130"
       inkscape:connector-curvature="0" />
    <path
       style="fill:none;stroke:#000000"
       d="m 204.2161,51.73705 -0.73267,-4.23466 21.5396,-1.54598 0.36633,2.11733"
       id="path17132"
       inkscape:connector-curvature="0" />
    <path
       style="fill:none;stroke:#000000"
       d="m 225.38936,48.07374 -0.73266,-4.23466 21.53959,-1.54598 0.36633,2.11733"
       id="path17134"
       inkscape:connector-curvature="0" />
    <path
       style="fill:none;stroke:#000000"
       d="m 246.56262,44.41043 -0.73266,-4.23466 21.53959,-1.54598 0.36633,2.11732"
       id="path17136"
       inkscape:connector-curvature="0" />
    <path
       style="fill:none;stroke:#000000"
       d="m 267.73588,40.74711 -0.73266,-4.23465 21.53959,-1.54598 0.36634,2.11732"
       id="path17138"
       inkscape:connector-curvature="0" />
    <path
       style="fill:none;stroke:#000000"
       d="m 288.90915,37.0838 -0.73267,-4.23465 21.5396,-1.54598 0.36633,2.11732"
       id="path17140"
       inkscape:connector-curvature="0" />
    <path
       style="fill:none;stroke:#000000"
       d="m 310.08241,33.42049 -0.73267,-4.23465 21.5396,-1.54598 0.36633,2.11732"
       id="path17142"
       inkscape:connector-curvature="0" />
    <path
       style="fill:none;stroke:#000000"
       d="m 331.25567,29.75718 -0.73266,-4.23465 21.53959,-1.54598 0.36633,2.11732"
       id="path17144"
       inkscape:connector-curvature="0" />
    <path
       style="fill:none;stroke:#000000"
       d="m 352.42893,26.09387 -0.73266,-4.23465 21.53959,-1.54598 0.36633,2.11732"
       id="path17146"
       inkscape:connector-curvature="0" />
    <path
       style="fill:none;stroke:#000000"
       d="m 373.60219,22.43056 -0.73266,-4.23465 21.5396,-1.54598 0.36633,2.11732"
       id="path17148"
       inkscape:connector-curvature="0" />
    <path
       style="fill:none;stroke:#000000"
       d="m 394.77546,18.76725 -0.73267,-4.23465 21.5396,-1.54598 0.36633,2.11732"
       id="path17150"
       inkscape:connector-curvature="0" />
    <path
       style="fill:none;stroke:#000000"
       d="m 420.25577,13.20721 a 4.297566,4.297566 0 0 0 -7.74686,0"
       id="path17152"
       inkscape:connector-curvature="0" />
    <path
       style="fill:none;stroke:#000000;stroke-width:0.7;stroke-miterlimit:4;stroke-dasharray:none"
       d="m 421.45232,13.29309 a 5.371958,5.371958 0 0 0 -10.13996,0"
       id="path17154"
       inkscape:connector-curvature="0" />
    <path
       style="fill:none;stroke:#000000;stroke-width:2;stroke-miterlimit:4;stroke-dasharray:none"
       d="M 689.13875,72.16938 416.38234,24.97819"
       id="path17156"
       inkscape:connector-curvature="0" />
    <path
       style="fill:none;stroke:#000000;stroke-width:2;stroke-miterlimit:4;stroke-dasharray:none"
       d="m 690.35219,65.15593 -1.21344,7.01345"
       id="path17158"
       inkscape:connector-curvature="0" />
    <path
       style="fill:none;stroke:#000000"
       d="m 56.461174,80.02688 1.213437,7.01344"
       id="path17160"
       inkscape:connector-curvature="0" />
    <path
       style="fill:none;stroke:#000000;stroke-width:2;stroke-miterlimit:4;stroke-dasharray:none"
       d="M 90.094891,81.4311 416.38234,24.97819"
       id="path17162"
       inkscape:connector-curvature="0" />
    <path
       style="fill:none;stroke:#000000;stroke-width:2;stroke-miterlimit:4;stroke-dasharray:none"
       d="M 90.094891,81.4311 88.430243,71.80974"
       id="path17164"
       inkscape:connector-curvature="0" />
    <path
       style="fill:none;stroke:#000000"
       d="m 90.094891,81.4311 -32.42028,5.60922"
       id="path17166"
       inkscape:connector-curvature="0" />
    <path
       style="fill:none;stroke:#000000;stroke-width:2;stroke-miterlimit:4;stroke-dasharray:none"
       d="M 87.781491,71.56631 416.38234,15.06882"
       id="path17168"
       inkscape:connector-curvature="0"
       sodipodi:nodetypes="cc" />
    <path
       style="fill:none;stroke:#000000"
       d="m 416.38234,15.06882 0,2.68598"
       id="path17170"
       inkscape:connector-curvature="0" />
    <path
       style="fill:none;stroke:#000000;stroke-width:2;stroke-miterlimit:4;stroke-dasharray:none"
       d="M 416.38234,17.7548 88.881453,74.41765"
       id="path17172"
       inkscape:connector-curvature="0" />
    <path
       style="fill:none;stroke:#000000"
       d="M 56.461174,80.02688 56.00326,77.38022"
       id="path17174"
       inkscape:connector-curvature="0" />
    <path
       style="fill:none;stroke:#000000"
       d="m 56.00326,77.38022 0.0067,0.0387"
       id="path17176"
       inkscape:connector-curvature="0" />
    <path
       style="fill:none;stroke:#000000"
       d="M 88.881453,74.41765 56.461174,80.02688"
       id="path17178"
       inkscape:connector-curvature="0" />
    <path
       inkscape:connector-curvature="0"
       id="path17740"
       d="M 88.184709,71.351976 55.76443,76.961206"
       style="fill:none;stroke:#000000" />
  </g>
  <g
     inkscape:label="parede_fundo"
     inkscape:groupmode="layer"
     id="g17180">
    <path
       style="fill:none;stroke:#000000"
       d="m 83.320962,262.3579 0,-179.7548"
       id="path17182"
       inkscape:connector-curvature="0" />
  </g>
</svg>
