<?xml version="1.0" encoding="UTF-8" standalone="no"?>
<svg
   xmlns:dc="http://purl.org/dc/elements/1.1/"
   xmlns:cc="http://creativecommons.org/ns#"
   xmlns:rdf="http://www.w3.org/1999/02/22-rdf-syntax-ns#"
   xmlns:svg="http://www.w3.org/2000/svg"
   xmlns="http://www.w3.org/2000/svg"
   xmlns:xlink="http://www.w3.org/1999/xlink"
   xmlns:sodipodi="http://sodipodi.sourceforge.net/DTD/sodipodi-0.dtd"
   xmlns:inkscape="http://www.inkscape.org/namespaces/inkscape"
   width="744.094488189"
   height="1052.36220472"
   id="svg7091"
   version="1.1"
   inkscape:version="0.48.2 r9819"
   sodipodi:docname="fachada_frontal.dxf">
  <metadata
     id="metadata7446">
    <rdf:RDF>
      <cc:Work
         rdf:about="">
        <dc:format>image/svg+xml</dc:format>
        <dc:type
           rdf:resource="http://purl.org/dc/dcmitype/StillImage" />
        <dc:title></dc:title>
      </cc:Work>
    </rdf:RDF>
  </metadata>
  <sodipodi:namedview
     pagecolor="#ffffff"
     bordercolor="#666666"
     borderopacity="1"
     objecttolerance="10"
     gridtolerance="10"
     guidetolerance="10"
     inkscape:pageopacity="0"
     inkscape:pageshadow="2"
     inkscape:window-width="1244"
     inkscape:window-height="1046"
     id="namedview7444"
     showgrid="false"
     inkscape:zoom="0.89702957"
     inkscape:cx="326.34083"
     inkscape:cy="803.76391"
     inkscape:window-x="371"
     inkscape:window-y="199"
     inkscape:window-maximized="0"
     inkscape:current-layer="g7436" />
  <desc
     id="desc7093">/Users/andreibosco/Documents/git/ufcv-maphighlight/template/svg/fachada_frontal.dxf - scale = 0.015161</desc>
  <defs
     id="defs7095">
    <marker
       refY="0.0"
       refX="0.0"
       style="overflow:visible"
       id="DistanceX"
       orient="auto">
      <path
         style="stroke:#000000; stroke-width:0.5"
         d="M 3,-3 L -3,3 M 0,-5 L  0,5"
         id="path7098" />
    </marker>
    <pattern
       height="8"
       width="8"
       patternUnits="userSpaceOnUse"
       y="0"
       x="0"
       id="Hatch">
      <path
         linecap="square"
         stroke="#000000"
         stroke-width="0.25"
         d="M8 4 l-4,4"
         id="path7101" />
      <path
         linecap="square"
         stroke="#000000"
         stroke-width="0.25"
         d="M6 2 l-4,4"
         id="path7103" />
      <path
         linecap="square"
         stroke="#000000"
         stroke-width="0.25"
         d="M4 0 l-4,4"
         id="path7105" />
    </pattern>
    <symbol
       id="*Model_Space" />
    <symbol
       id="*Paper_Space" />
    <symbol
       id="*Paper_Space0" />
    <symbol
       id="*U1">
      <path
         style="stroke:#000000;fill:none"
         d="M -19.518341,1052.895383 18.086404,1052.895383"
         id="path7111" />
    </symbol>
    <symbol
       id="*U2">
      <use
         y="0.000000"
         x="0.000000"
         xlink:href="#%2AU1"
         id="use7114" />
      <use
         y="-2.686053"
         x="0.000000"
         xlink:href="#%2AU1"
         id="use7116" />
      <use
         y="-5.372106"
         x="0.000000"
         xlink:href="#%2AU1"
         id="use7118" />
      <use
         y="-8.058160"
         x="0.000000"
         xlink:href="#%2AU1"
         id="use7120" />
      <use
         y="-10.744213"
         x="0.000000"
         xlink:href="#%2AU1"
         id="use7122" />
    </symbol>
    <symbol
       id="*U3">
      <path
         style="stroke:#000000;fill:none"
         d="M -0.734771,1052.895383 -0.702539,1052.895383"
         id="path7125" />
    </symbol>
    <symbol
       id="_Origin">
      <path
         style="stroke:#000000;fill:none;stroke-linecap: round"
         d="M -0.689108,1052.895383 A 0.026861,0.026861 -0.000000 1 0 -0.742829,1052.895383 0.026861,0.026861 -0.000000 1 0 -0.689108,1052.895383 z"
         id="path7128" />
      <path
         style="stroke:#000000;fill:none;stroke-linecap: round"
         d="M -0.715969,1052.895383 -0.769690,1052.895383"
         id="path7130" />
    </symbol>
    <symbol
       id="A$C51AE7BE9">
      <path
         style="stroke:#000000;fill:none"
         d="M -0.712746,1052.820174 -0.712746,1052.895383"
         id="path7133" />
      <path
         style="stroke:#00FF00;stroke-width:1.9;fill:none"
         d="M -0.715969,1052.820174 -0.715969,1052.895383"
         id="path7135" />
      <path
         style="stroke:#000000;fill:none"
         d="M -0.712746,1052.820174 L -0.632164,1052.820174 L -0.632164,1052.895383 L -0.712746,1052.895383"
         id="path7137" />
      <path
         style="stroke:#000000;fill:none"
         d="M -0.712746,1052.822860 L -0.679170,1052.822860"
         id="path7139" />
      <path
         style="stroke:#000000;fill:none"
         d="M -0.673798,1052.822860 L -0.634850,1052.822860 L -0.634850,1052.833604"
         id="path7141" />
      <path
         style="stroke:#000000;fill:none"
         d="M -0.634850,1052.836290 L -0.634850,1052.892697 L -0.673798,1052.892697"
         id="path7143" />
      <path
         style="stroke:#000000;fill:none"
         d="M -0.679170,1052.892697 L -0.712746,1052.892697"
         id="path7145" />
      <path
         style="stroke:#000000;fill:none"
         d="M -0.673798,1052.836290 -0.634850,1052.836290"
         id="path7147" />
      <path
         style="stroke:#000000;fill:none"
         d="M -0.712746,1052.833604 -0.676484,1052.833604"
         id="path7149" />
      <path
         style="stroke:#000000;fill:none"
         d="M -0.676484,1052.833604 -0.632164,1052.833604"
         id="path7151" />
      <path
         style="stroke:#000000;fill:none"
         d="M -0.673798,1052.830918 -0.634850,1052.830918"
         id="path7153" />
      <path
         style="stroke:#000000;fill:none"
         d="M -0.673798,1052.828232 -0.634850,1052.828232"
         id="path7155" />
      <path
         style="stroke:#000000;fill:none"
         d="M -0.673798,1052.825546 -0.634850,1052.825546"
         id="path7157" />
      <path
         style="stroke:#000000;fill:none"
         d="M -0.676484,1052.895383 -0.676484,1052.820174"
         id="path7159" />
      <path
         style="stroke:#000000;fill:none"
         d="M -0.673798,1052.892697 -0.673798,1052.836290"
         id="path7161" />
      <path
         style="stroke:#000000;fill:none"
         d="M -0.673798,1052.833604 -0.673798,1052.822860"
         id="path7163" />
      <path
         style="stroke:#000000;fill:none"
         d="M -0.679170,1052.892697 -0.679170,1052.836290"
         id="path7165" />
      <path
         style="stroke:#000000;fill:none"
         d="M -0.679170,1052.833604 -0.679170,1052.822860"
         id="path7167" />
      <path
         style="stroke:#000000;fill:none"
         d="M -0.712746,1052.836290 -0.679170,1052.836290"
         id="path7169" />
      <path
         style="stroke:#000000;fill:none"
         d="M -0.712746,1052.830918 -0.679170,1052.830918"
         id="path7171" />
      <path
         style="stroke:#000000;fill:none"
         d="M -0.712746,1052.828232 -0.679170,1052.828232"
         id="path7173" />
      <path
         style="stroke:#000000;fill:none"
         d="M -0.712746,1052.825546 -0.679170,1052.825546"
         id="path7175" />
      <path
         style="stroke:#000000;fill:none"
         d="M -0.673798,1052.836290 -0.654324,1052.892697"
         id="path7177" />
      <path
         style="stroke:#000000;fill:none"
         d="M -0.654324,1052.892697 -0.634850,1052.836290"
         id="path7179" />
      <path
         style="stroke:#000000;fill:none"
         d="M -0.712746,1052.851851 -0.698644,1052.892697"
         id="path7181" />
      <path
         style="stroke:#000000;fill:none"
         d="M -0.698644,1052.892697 -0.679170,1052.836290"
         id="path7183" />
    </symbol>
    <symbol
       id="*U21">
      <path
         style="stroke:#000000;fill:none"
         d="M -0.721341,1052.874006 -0.721341,1052.916761"
         id="path7186" />
      <path
         style="stroke:#000000;fill:none"
         d="M -0.710597,1052.874006 -0.710597,1052.916761"
         id="path7188" />
    </symbol>
  </defs>
  <g
     inkscape:label="0"
     inkscape:groupmode="layer"
     id="g7190"
     style="display:inline">
    <path
       style="fill:none;stroke:#000000"
       d="m 386.82668,134.7995 37.60474,0"
       id="path7192"
       inkscape:connector-curvature="0" />
    <path
       style="fill:none;stroke:#000000"
       d="m 386.82668,132.11344 37.60474,0"
       id="path7194"
       inkscape:connector-curvature="0" />
    <path
       style="fill:none;stroke:#000000"
       d="m 386.82668,129.42739 37.60474,0"
       id="path7196"
       inkscape:connector-curvature="0" />
    <path
       style="fill:none;stroke:#000000"
       d="m 386.82668,126.74134 37.60474,0"
       id="path7198"
       inkscape:connector-curvature="0" />
    <path
       style="fill:none;stroke:#000000"
       d="m 386.82668,124.05528 37.60474,0"
       id="path7200"
       inkscape:connector-curvature="0" />
  </g>
  <g
     inkscape:label="portas"
     inkscape:groupmode="layer"
     id="g7204"
     style="display:inline">
    <path
       style="fill:none;stroke:#000000"
       d="m 384.14063,247.6137 0,-128.93052 42.97685,0 0,128.93052"
       id="path7206"
       inkscape:connector-curvature="0" />
    <path
       style="fill:none;stroke:#000000"
       d="m 386.82668,247.6137 0,-126.24447 37.60474,0 0,126.24447"
       id="path7208"
       inkscape:connector-curvature="0" />
    <path
       style="fill:none;stroke:#000000"
       d="m 424.43142,134.7995 -37.60474,56.40711 37.60474,56.40709"
       id="path7210"
       inkscape:connector-curvature="0" />
  </g>
  <g
     inkscape:label="paredes"
     inkscape:groupmode="layer"
     id="g7212"
     style="display:inline">
    <path
       style="fill:none;stroke:#000000"
       d="m 432.48958,247.6137 0,-210.50198"
       id="path7214"
       inkscape:connector-curvature="0" />
    <path
       style="fill:none;stroke:#000000"
       d="m 609.7691,67.96182 0,50.72134 -1.07442,0"
       id="path7216"
       inkscape:connector-curvature="0" />
    <path
       style="fill:none;stroke:#000000"
       d="m 608.69468,193.89265 1.07442,0 0,64.46525"
       id="path7218"
       inkscape:connector-curvature="0" />
  </g>
  <g
     inkscape:label="janelas"
     inkscape:groupmode="layer"
     id="g7220"
     style="display:inline">
    <path
       style="fill:none;stroke:#000000"
       d="m 565.44919,118.68316 43.24549,0 0,75.20949 -43.24549,0"
       id="path7222"
       inkscape:connector-curvature="0" />
    <path
       style="fill:none;stroke:#000000"
       d="m 568.13525,121.36922 37.87337,0 0,10.74422"
       id="path7224"
       inkscape:connector-curvature="0" />
    <path
       style="fill:none;stroke:#000000"
       d="m 568.13525,191.2066 0,-56.4071 37.87337,0 0,56.4071 -37.87337,0 z"
       id="path7226"
       inkscape:connector-curvature="0" />
    <path
       style="fill:none;stroke:#000000"
       d="m 565.44919,132.11344 43.24549,0"
       id="path7228"
       inkscape:connector-curvature="0" />
    <path
       style="fill:none;stroke:#000000"
       d="m 568.13525,129.42739 37.87337,0"
       id="path7230"
       inkscape:connector-curvature="0" />
    <path
       style="fill:none;stroke:#000000"
       d="m 568.13525,126.74134 37.87337,0"
       id="path7232"
       inkscape:connector-curvature="0" />
    <path
       style="fill:none;stroke:#000000"
       d="m 568.13525,124.05528 37.87337,0"
       id="path7234"
       inkscape:connector-curvature="0" />
    <path
       style="fill:none;stroke:#000000"
       d="m 568.13525,132.11344 0,-10.74422"
       id="path7236"
       inkscape:connector-curvature="0" />
    <path
       style="fill:none;stroke:#000000"
       d="m 568.13525,134.7995 18.93668,56.4071 18.93669,-56.4071"
       id="path7238"
       inkscape:connector-curvature="0" />
    <path
       style="fill:none;stroke:#000000"
       d="m 521.12929,118.68316 44.3199,0 0,75.20949 -44.3199,0 0,-75.20949 z"
       id="path7240"
       inkscape:connector-curvature="0" />
    <path
       style="fill:none;stroke:#000000"
       d="m 523.81534,121.36922 38.9478,0 0,10.74422"
       id="path7242"
       inkscape:connector-curvature="0" />
    <path
       style="fill:none;stroke:#000000"
       d="m 523.81534,134.7995 38.9478,0 0,56.4071 -38.9478,0 0,-56.4071 z"
       id="path7244"
       inkscape:connector-curvature="0" />
    <path
       style="fill:none;stroke:#000000"
       d="m 521.12929,132.11344 44.3199,0"
       id="path7246"
       inkscape:connector-curvature="0" />
    <path
       style="fill:none;stroke:#000000"
       d="m 523.81534,129.42739 38.9478,0"
       id="path7248"
       inkscape:connector-curvature="0" />
    <path
       style="fill:none;stroke:#000000"
       d="m 523.81534,126.74134 38.9478,0"
       id="path7250"
       inkscape:connector-curvature="0" />
    <path
       style="fill:none;stroke:#000000"
       d="m 523.81534,124.05528 38.9478,0"
       id="path7252"
       inkscape:connector-curvature="0" />
    <path
       style="fill:none;stroke:#000000"
       d="m 523.81534,132.11344 0,-10.74422"
       id="path7254"
       inkscape:connector-curvature="0" />
    <path
       style="fill:none;stroke:#000000"
       d="m 523.81534,134.7995 19.47391,56.4071 19.47389,-56.4071"
       id="path7256"
       inkscape:connector-curvature="0" />
    <path
       style="fill:none;stroke:#000000"
       d="m 260.31355,118.68316 43.24548,0 0,75.20949 -43.24548,0"
       id="path7258"
       inkscape:connector-curvature="0" />
    <path
       style="fill:none;stroke:#000000"
       d="m 262.9996,121.36922 37.87338,0 0,10.74422"
       id="path7260"
       inkscape:connector-curvature="0" />
    <path
       style="fill:none;stroke:#000000"
       d="m 262.9996,191.2066 0,-56.4071 37.87338,0 0,56.4071 -37.87338,0 z"
       id="path7262"
       inkscape:connector-curvature="0" />
    <path
       style="fill:none;stroke:#000000"
       d="m 260.31355,132.11344 43.24548,0"
       id="path7264"
       inkscape:connector-curvature="0" />
    <path
       style="fill:none;stroke:#000000"
       d="m 262.9996,129.42739 37.87338,0"
       id="path7266"
       inkscape:connector-curvature="0" />
    <path
       style="fill:none;stroke:#000000"
       d="m 262.9996,126.74134 37.87338,0"
       id="path7268"
       inkscape:connector-curvature="0" />
    <path
       style="fill:none;stroke:#000000"
       d="m 262.9996,124.05528 37.87338,0"
       id="path7270"
       inkscape:connector-curvature="0" />
    <path
       style="fill:none;stroke:#000000"
       d="m 262.9996,132.11344 0,-10.74422"
       id="path7272"
       inkscape:connector-curvature="0" />
    <path
       style="fill:none;stroke:#000000"
       d="m 262.9996,134.7995 18.93669,56.4071 18.93669,-56.4071"
       id="path7274"
       inkscape:connector-curvature="0" />
    <path
       style="fill:none;stroke:#000000"
       d="m 215.99364,118.68316 44.31991,0 0,75.20949 -44.31991,0 0,-75.20949 z"
       id="path7276"
       inkscape:connector-curvature="0" />
    <path
       style="fill:none;stroke:#000000"
       d="m 218.6797,121.36922 38.94779,0 0,10.74422"
       id="path7278"
       inkscape:connector-curvature="0" />
    <path
       style="fill:none;stroke:#000000"
       d="m 218.6797,134.7995 38.94779,0 0,56.4071 -38.94779,0 0,-56.4071 z"
       id="path7280"
       inkscape:connector-curvature="0" />
    <path
       style="fill:none;stroke:#000000"
       d="m 215.99364,132.11344 44.31991,0"
       id="path7282"
       inkscape:connector-curvature="0" />
    <path
       style="fill:none;stroke:#000000"
       d="m 218.6797,129.42739 38.94779,0"
       id="path7284"
       inkscape:connector-curvature="0" />
    <path
       style="fill:none;stroke:#000000"
       d="m 218.6797,126.74134 38.94779,0"
       id="path7286"
       inkscape:connector-curvature="0" />
    <path
       style="fill:none;stroke:#000000"
       d="m 218.6797,124.05528 38.94779,0"
       id="path7288"
       inkscape:connector-curvature="0" />
    <path
       style="fill:none;stroke:#000000"
       d="m 218.6797,132.11344 0,-10.74422"
       id="path7290"
       inkscape:connector-curvature="0" />
    <path
       style="fill:none;stroke:#000000"
       d="m 218.6797,134.7995 19.47391,56.4071 19.47388,-56.4071"
       id="path7292"
       inkscape:connector-curvature="0" />
  </g>
  <g
     inkscape:label="pilares"
     inkscape:groupmode="layer"
     id="g7294"
     style="display:inline">
    <path
       style="fill:none;stroke:#000000"
       d="m 80.616614,247.6137 0,-162.23758 16.11632,0 0,162.23758"
       id="path7296"
       inkscape:connector-curvature="0" />
    <path
       style="fill:none;stroke:#000000"
       d="m 88.674774,85.37612 0,162.23758"
       id="path7298"
       inkscape:connector-curvature="0" />
    <path
       style="fill:none;stroke:#000000"
       d="m 82.590426,85.37612 0,162.23758"
       id="path7300"
       inkscape:connector-curvature="0" />
    <path
       style="fill:none;stroke:#000000"
       d="m 94.759122,85.37612 0,162.23758"
       id="path7302"
       inkscape:connector-curvature="0" />
  </g>
  <g
     inkscape:label="piso"
     inkscape:groupmode="layer"
     id="g7304"
     style="display:inline">
    <path
       style="fill:none;stroke:#000000"
       d="m 80.616614,258.3579 0,-10.7442 351.872966,0"
       id="path7306"
       inkscape:connector-curvature="0" />
  </g>
  <g
     inkscape:label="chao"
     inkscape:groupmode="layer"
     id="g7308"
     style="display:inline">
    <path
       style="fill:none;stroke:#000000"
       d="m 0.035018,258.3579 744.036742,0"
       id="path7310"
       inkscape:connector-curvature="0" />
  </g>
  <g
     inkscape:label="parede_fundo"
     inkscape:groupmode="layer"
     id="g7312"
     style="display:inline">
    <path
       style="fill:none;stroke:#000000"
       d="m 660.80411,258.3579 0,-181.53145"
       id="path7314"
       inkscape:connector-curvature="0" />
    <path
       style="fill:none;stroke:#000000"
       d="m 214.91927,74.6319 0,-3.05641"
       id="path7316"
       inkscape:connector-curvature="0" />
    <path
       style="fill:none;stroke:#000000"
       d="m 214.91927,60.83128 0,-9.43587"
       id="path7318"
       inkscape:connector-curvature="0" />
    <path
       style="fill:none;stroke:#000000"
       d="m 214.91927,247.6137 0,-53.72103 1.07437,-2e-5"
       id="path7320"
       inkscape:connector-curvature="0" />
    <path
       style="fill:none;stroke:#000000"
       d="m 215.99364,118.68316 -1.07437,2e-5 0,-33.30706"
       id="path7322"
       inkscape:connector-curvature="0" />
  </g>
  <g
     inkscape:label="coberta"
     inkscape:groupmode="layer"
     id="g7324"
     style="display:inline">
    <path
       style="fill:none;stroke:#000000"
       d="m 645.77487,66.04827 -1.37378,7.9402 L 328.64936,19.04149 54.671935,66.44394 53.298156,58.50374 327.73351,11.06198 l 318.04136,54.98629 0,0 z"
       id="path7326"
       inkscape:connector-curvature="0" />
    <path
       style="fill:none;stroke:#000000"
       d="m 53.309119,58.56711 -0.732683,-4.23477 20.270917,-1.39169 0.366342,2.11739"
       id="path7328"
       inkscape:connector-curvature="0" />
    <path
       style="fill:none;stroke:#000000"
       d="m 73.213695,55.05804 -0.732683,-4.23477 21.54019,-1.54603 0.366341,2.11739"
       id="path7330"
       inkscape:connector-curvature="0" />
    <path
       style="fill:none;stroke:#000000"
       d="m 94.387543,51.39463 -0.732683,-4.23477 21.54019,-1.54603 0.36634,2.11739"
       id="path7332"
       inkscape:connector-curvature="0" />
    <path
       style="fill:none;stroke:#000000"
       d="m 115.56139,47.73122 -0.73268,-4.23477 21.54019,-1.54603 0.36634,2.11738"
       id="path7334"
       inkscape:connector-curvature="0" />
    <path
       style="fill:none;stroke:#000000"
       d="m 136.73524,44.0678 -0.73268,-4.23477 21.54019,-1.54602 0.36634,2.11738"
       id="path7336"
       inkscape:connector-curvature="0" />
    <path
       style="fill:none;stroke:#000000"
       d="m 157.90909,40.40439 -0.73269,-4.23477 21.54019,-1.54602 0.36635,2.11738"
       id="path7338"
       inkscape:connector-curvature="0" />
    <path
       style="fill:none;stroke:#000000"
       d="m 179.08294,36.74098 -0.73269,-4.23477 21.54019,-1.54603 0.36634,2.11739"
       id="path7340"
       inkscape:connector-curvature="0" />
    <path
       style="fill:none;stroke:#000000"
       d="m 200.25678,33.07757 -0.73268,-4.23477 21.54019,-1.54603 0.36634,2.11739"
       id="path7342"
       inkscape:connector-curvature="0" />
    <path
       style="fill:none;stroke:#000000"
       d="m 221.43063,29.41416 -0.73268,-4.23477 21.54019,-1.54603 0.36634,2.11739"
       id="path7344"
       inkscape:connector-curvature="0" />
    <path
       style="fill:none;stroke:#000000"
       d="m 242.60448,25.75075 -0.73268,-4.23477 21.54019,-1.54603 0.36634,2.11738"
       id="path7346"
       inkscape:connector-curvature="0" />
    <path
       style="fill:none;stroke:#000000"
       d="m 263.77833,22.08733 -0.73268,-4.23477 21.54019,-1.54602 0.36634,2.11738"
       id="path7348"
       inkscape:connector-curvature="0" />
    <path
       style="fill:none;stroke:#000000"
       d="m 284.95218,18.42392 -0.73269,-4.23477 21.54019,-1.54602 0.36635,2.11738"
       id="path7350"
       inkscape:connector-curvature="0" />
    <path
       style="fill:none;stroke:#000000"
       d="m 306.12603,14.76051 -0.73269,-4.23477 21.54019,-1.54603 0.36634,2.11739"
       id="path7352"
       inkscape:connector-curvature="0" />
    <path
       style="fill:none;stroke:#000000"
       d="m 645.77487,66.04827 0.73268,-4.23476 -21.54019,-1.54603 -0.36634,2.11738"
       id="path7354"
       inkscape:connector-curvature="0" />
    <path
       style="fill:none;stroke:#000000"
       d="m 624.60102,62.38486 0.73268,-4.23477 -21.54019,-1.54602 -0.36634,2.11738"
       id="path7356"
       inkscape:connector-curvature="0" />
    <path
       style="fill:none;stroke:#000000"
       d="m 603.42717,58.72145 0.73269,-4.23477 -21.54019,-1.54603 -0.36634,2.11739"
       id="path7358"
       inkscape:connector-curvature="0" />
    <path
       style="fill:none;stroke:#000000"
       d="m 582.25333,55.05804 0.73268,-4.23477 -21.54019,-1.54603 -0.36634,2.11739"
       id="path7360"
       inkscape:connector-curvature="0" />
    <path
       style="fill:none;stroke:#000000"
       d="m 561.07948,51.39463 0.73268,-4.23477 -21.54019,-1.54603 -0.36634,2.11739"
       id="path7362"
       inkscape:connector-curvature="0" />
    <path
       style="fill:none;stroke:#000000"
       d="m 539.90563,47.73122 0.73268,-4.23477 -21.54019,-1.54603 -0.36634,2.11738"
       id="path7364"
       inkscape:connector-curvature="0" />
    <path
       style="fill:none;stroke:#000000"
       d="m 518.73178,44.0678 0.73268,-4.23477 -21.54019,-1.54602 -0.36634,2.11738"
       id="path7366"
       inkscape:connector-curvature="0" />
    <path
       style="fill:none;stroke:#000000"
       d="m 497.55793,40.40439 0.73268,-4.23477 -21.54019,-1.54602 -0.36634,2.11738"
       id="path7368"
       inkscape:connector-curvature="0" />
    <path
       style="fill:none;stroke:#000000"
       d="m 476.38408,36.74098 0.73269,-4.23477 -21.54019,-1.54603 -0.36635,2.11739"
       id="path7370"
       inkscape:connector-curvature="0" />
    <path
       style="fill:none;stroke:#000000"
       d="m 455.21023,33.07757 0.73269,-4.23477 -21.54019,-1.54603 -0.36634,2.11739"
       id="path7372"
       inkscape:connector-curvature="0" />
    <path
       style="fill:none;stroke:#000000"
       d="m 434.03639,29.41416 0.73268,-4.23477 -21.54019,-1.54603 -0.36634,2.11739"
       id="path7374"
       inkscape:connector-curvature="0" />
    <path
       style="fill:none;stroke:#000000"
       d="m 412.86254,25.75075 0.73268,-4.23477 -21.54019,-1.54603 -0.36634,2.11738"
       id="path7376"
       inkscape:connector-curvature="0" />
    <path
       style="fill:none;stroke:#000000"
       d="m 391.68869,22.08733 0.73268,-4.23477 -21.54019,-1.54602 -0.36634,2.11738"
       id="path7378"
       inkscape:connector-curvature="0" />
    <path
       style="fill:none;stroke:#000000"
       d="m 370.51484,18.42392 0.73268,-4.23477 -21.54019,-1.54602 -0.36634,2.11738"
       id="path7380"
       inkscape:connector-curvature="0" />
    <path
       style="fill:none;stroke:#000000"
       d="m 349.34099,14.76051 0.73269,-4.23477 -21.54019,-1.54603 -0.36635,2.11739"
       id="path7382"
       inkscape:connector-curvature="0" />
    <path
       style="fill:none;stroke:#000000"
       d="m 331.60705,9.20032 a 4.297685,4.297685 0 0 0 -7.74708,0"
       id="path7384"
       inkscape:connector-curvature="0" />
    <path
       style="fill:none;stroke:#000000"
       d="m 332.80363,9.2862 a 5.372106,5.372106 0 0 0 -10.14024,0"
       id="path7386"
       inkscape:connector-curvature="0" />
    <path
       style="fill:none;stroke:#000000"
       d="m 432.48958,85.37612 0,-10.74422 -351.872966,0 0,10.74422 351.872966,0 z"
       id="path7388"
       inkscape:connector-curvature="0" />
    <path
       style="fill:none;stroke:#000000"
       d="m 322.3614,32.80622 0,41.82568"
       id="path7390"
       inkscape:connector-curvature="0" />
    <path
       style="fill:none;stroke:#000000"
       d="m 333.10562,32.80622 0,41.82568"
       id="path7392"
       inkscape:connector-curvature="0" />
    <path
       style="fill:none;stroke:#000000"
       d="m 273.23793,41.30536 0,33.32654"
       id="path7394"
       inkscape:connector-curvature="0" />
    <path
       style="fill:none;stroke:#000000"
       d="m 283.98215,48.59449 0,26.03741"
       id="path7396"
       inkscape:connector-curvature="0" />
    <path
       style="fill:none;stroke:#000000"
       d="m 224.11447,49.8045 0,24.8274"
       id="path7398"
       inkscape:connector-curvature="0" />
    <path
       style="fill:none;stroke:#000000"
       d="m 234.85868,55.23471 0,19.39719"
       id="path7400"
       inkscape:connector-curvature="0" />
    <path
       style="fill:none;stroke:#000000"
       d="m 174.991,58.30364 0,16.32826"
       id="path7402"
       inkscape:connector-curvature="0" />
    <path
       style="fill:none;stroke:#000000"
       d="m 185.73521,61.87493 0,12.75697"
       id="path7404"
       inkscape:connector-curvature="0" />
    <path
       style="fill:none;stroke:#000000"
       d="m 382.22908,41.30536 0,33.32654"
       id="path7406"
       inkscape:connector-curvature="0" />
    <path
       style="fill:none;stroke:#000000"
       d="m 371.48487,48.59449 0,26.03741"
       id="path7408"
       inkscape:connector-curvature="0" />
    <path
       style="fill:none;stroke:#000000"
       d="M 333.10562,74.6319 382.22908,41.30536"
       id="path7410"
       inkscape:connector-curvature="0" />
    <path
       style="fill:none;stroke:#000000"
       d="M 322.3614,74.6319 273.23793,41.30536"
       id="path7412"
       inkscape:connector-curvature="0" />
    <path
       style="fill:none;stroke:#000000"
       d="M 273.23793,74.6319 224.11447,49.8045"
       id="path7414"
       inkscape:connector-curvature="0" />
    <path
       style="fill:none;stroke:#000000"
       d="M 224.11447,74.6319 174.991,58.30364"
       id="path7416"
       inkscape:connector-curvature="0" />
    <path
       style="fill:none;stroke:#000000"
       d="m 333.10562,63.88769 36.50459,-24.7656"
       id="path7418"
       inkscape:connector-curvature="0" />
    <path
       style="fill:none;stroke:#000000"
       d="M 322.3614,63.88769 285.85681,39.12209"
       id="path7420"
       inkscape:connector-curvature="0" />
    <path
       style="fill:none;stroke:#000000"
       d="M 273.23793,63.88769 239.95148,47.06444"
       id="path7422"
       inkscape:connector-curvature="0" />
    <path
       style="fill:none;stroke:#000000"
       d="M 382.22908,74.6319 431.35255,49.8045"
       id="path7424"
       inkscape:connector-curvature="0" />
    <path
       style="fill:none;stroke:#000000"
       d="M 382.22908,63.88769 415.51554,47.06444"
       id="path7426"
       inkscape:connector-curvature="0" />
    <path
       style="fill:none;stroke:#000000"
       d="M 224.11447,63.88769 196.24948,54.62558"
       id="path7428"
       inkscape:connector-curvature="0" />
    <path
       style="fill:none;stroke:#000000"
       d="M 432.48958,50.00122 327.73351,31.87676 80.616614,74.6319 78.628553,63.14127"
       id="path7430"
       inkscape:connector-curvature="0" />
  </g>
  <g
     inkscape:label="coberta_fundo"
     inkscape:groupmode="layer"
     id="g7436"
     style="display:inline">
    <path
       style="fill:none;stroke:#000000"
       d="m 688.12257,73.3751 0.73268,-4.23477 -21.54019,-1.54603 -0.36634,2.11739"
       id="path7438"
       inkscape:connector-curvature="0" />
    <path
       style="fill:none;stroke:#000000"
       d="m 666.94872,69.71169 0.73268,-4.23477 -21.54019,-1.54603 -0.36634,2.11738"
       id="path7440"
       inkscape:connector-curvature="0" />
    <path
       style="fill:none;stroke:#000000"
       d="m 644.40109,73.98847 42.3477,7.32682 1.37378,-7.94019 -42.3477,-7.32683"
       id="path7442"
       inkscape:connector-curvature="0" />
  </g>
</svg>
